%TF.GenerationSoftware,KiCad,Pcbnew,(7.0.0)*%
%TF.CreationDate,2023-03-06T22:48:15+01:00*%
%TF.ProjectId,RF_module,52465f6d-6f64-4756-9c65-2e6b69636164,1.1*%
%TF.SameCoordinates,Original*%
%TF.FileFunction,Paste,Top*%
%TF.FilePolarity,Positive*%
%FSLAX46Y46*%
G04 Gerber Fmt 4.6, Leading zero omitted, Abs format (unit mm)*
G04 Created by KiCad (PCBNEW (7.0.0)) date 2023-03-06 22:48:15*
%MOMM*%
%LPD*%
G01*
G04 APERTURE LIST*
G04 Aperture macros list*
%AMRoundRect*
0 Rectangle with rounded corners*
0 $1 Rounding radius*
0 $2 $3 $4 $5 $6 $7 $8 $9 X,Y pos of 4 corners*
0 Add a 4 corners polygon primitive as box body*
4,1,4,$2,$3,$4,$5,$6,$7,$8,$9,$2,$3,0*
0 Add four circle primitives for the rounded corners*
1,1,$1+$1,$2,$3*
1,1,$1+$1,$4,$5*
1,1,$1+$1,$6,$7*
1,1,$1+$1,$8,$9*
0 Add four rect primitives between the rounded corners*
20,1,$1+$1,$2,$3,$4,$5,0*
20,1,$1+$1,$4,$5,$6,$7,0*
20,1,$1+$1,$6,$7,$8,$9,0*
20,1,$1+$1,$8,$9,$2,$3,0*%
%AMRotRect*
0 Rectangle, with rotation*
0 The origin of the aperture is its center*
0 $1 length*
0 $2 width*
0 $3 Rotation angle, in degrees counterclockwise*
0 Add horizontal line*
21,1,$1,$2,0,0,$3*%
G04 Aperture macros list end*
%ADD10RoundRect,0.237500X-0.250000X-0.237500X0.250000X-0.237500X0.250000X0.237500X-0.250000X0.237500X0*%
%ADD11R,5.100000X1.800000*%
%ADD12R,2.000000X2.000000*%
%ADD13RoundRect,0.237500X-0.237500X0.300000X-0.237500X-0.300000X0.237500X-0.300000X0.237500X0.300000X0*%
%ADD14RoundRect,0.200000X-0.275000X0.200000X-0.275000X-0.200000X0.275000X-0.200000X0.275000X0.200000X0*%
%ADD15RoundRect,0.237500X0.250000X0.237500X-0.250000X0.237500X-0.250000X-0.237500X0.250000X-0.237500X0*%
%ADD16R,1.050000X0.600000*%
%ADD17RoundRect,0.237500X0.300000X0.237500X-0.300000X0.237500X-0.300000X-0.237500X0.300000X-0.237500X0*%
%ADD18RoundRect,0.075000X-0.075000X0.350000X-0.075000X-0.350000X0.075000X-0.350000X0.075000X0.350000X0*%
%ADD19RoundRect,0.075000X-0.350000X-0.075000X0.350000X-0.075000X0.350000X0.075000X-0.350000X0.075000X0*%
%ADD20RoundRect,0.237500X0.237500X-0.300000X0.237500X0.300000X-0.237500X0.300000X-0.237500X-0.300000X0*%
%ADD21RoundRect,0.237500X-0.300000X-0.237500X0.300000X-0.237500X0.300000X0.237500X-0.300000X0.237500X0*%
%ADD22RoundRect,0.150000X0.150000X0.700000X-0.150000X0.700000X-0.150000X-0.700000X0.150000X-0.700000X0*%
%ADD23RoundRect,0.250000X0.250000X1.150000X-0.250000X1.150000X-0.250000X-1.150000X0.250000X-1.150000X0*%
%ADD24RoundRect,0.237500X0.237500X-0.287500X0.237500X0.287500X-0.237500X0.287500X-0.237500X-0.287500X0*%
%ADD25RoundRect,0.200000X-0.053033X0.335876X-0.335876X0.053033X0.053033X-0.335876X0.335876X-0.053033X0*%
%ADD26RoundRect,0.237500X0.380070X-0.044194X-0.044194X0.380070X-0.380070X0.044194X0.044194X-0.380070X0*%
%ADD27R,0.400000X1.400000*%
%ADD28R,1.750000X1.900000*%
%ADD29R,1.150000X1.450000*%
%ADD30RoundRect,0.237500X0.044194X0.380070X-0.380070X-0.044194X-0.044194X-0.380070X0.380070X0.044194X0*%
%ADD31R,1.800000X2.500000*%
%ADD32RoundRect,0.237500X0.237500X-0.250000X0.237500X0.250000X-0.237500X0.250000X-0.237500X-0.250000X0*%
%ADD33RotRect,1.000000X1.200000X135.000000*%
%ADD34RoundRect,0.237500X-0.237500X0.250000X-0.237500X-0.250000X0.237500X-0.250000X0.237500X0.250000X0*%
%ADD35RoundRect,0.200000X0.200000X-0.700000X0.200000X0.700000X-0.200000X0.700000X-0.200000X-0.700000X0*%
%ADD36RoundRect,0.075000X-0.548008X0.441942X0.441942X-0.548008X0.548008X-0.441942X-0.441942X0.548008X0*%
%ADD37RoundRect,0.075000X-0.548008X-0.441942X-0.441942X-0.548008X0.548008X0.441942X0.441942X0.548008X0*%
%ADD38RoundRect,0.150000X0.825000X0.150000X-0.825000X0.150000X-0.825000X-0.150000X0.825000X-0.150000X0*%
%ADD39RoundRect,0.237500X0.287500X0.237500X-0.287500X0.237500X-0.287500X-0.237500X0.287500X-0.237500X0*%
%ADD40RoundRect,0.150000X0.150000X-0.512500X0.150000X0.512500X-0.150000X0.512500X-0.150000X-0.512500X0*%
%ADD41R,1.550000X1.300000*%
%ADD42RoundRect,0.237500X-0.044194X-0.380070X0.380070X0.044194X0.044194X0.380070X-0.380070X-0.044194X0*%
%ADD43RoundRect,0.200000X-0.200000X-0.275000X0.200000X-0.275000X0.200000X0.275000X-0.200000X0.275000X0*%
%ADD44RoundRect,0.237500X-0.035355X-0.371231X0.371231X0.035355X0.035355X0.371231X-0.371231X-0.035355X0*%
%ADD45RoundRect,0.200000X0.053033X-0.335876X0.335876X-0.053033X-0.053033X0.335876X-0.335876X0.053033X0*%
%ADD46RoundRect,0.237500X-0.287500X-0.237500X0.287500X-0.237500X0.287500X0.237500X-0.287500X0.237500X0*%
%ADD47R,3.150000X2.200000*%
%ADD48R,1.150000X0.400000*%
%ADD49RoundRect,0.237500X-0.380070X0.044194X0.044194X-0.380070X0.380070X-0.044194X-0.044194X0.380070X0*%
%ADD50RoundRect,0.125000X-0.125000X0.537500X-0.125000X-0.537500X0.125000X-0.537500X0.125000X0.537500X0*%
%ADD51R,1.200000X1.820000*%
%ADD52RoundRect,0.150000X-0.825000X-0.150000X0.825000X-0.150000X0.825000X0.150000X-0.825000X0.150000X0*%
%ADD53RoundRect,0.200000X0.335876X0.053033X0.053033X0.335876X-0.335876X-0.053033X-0.053033X-0.335876X0*%
%ADD54RoundRect,0.150000X-0.512500X-0.150000X0.512500X-0.150000X0.512500X0.150000X-0.512500X0.150000X0*%
%ADD55R,1.600000X2.800000*%
%ADD56R,1.100000X0.600000*%
%ADD57R,1.100000X0.300000*%
%ADD58RoundRect,0.237500X0.008839X0.344715X-0.344715X-0.008839X-0.008839X-0.344715X0.344715X0.008839X0*%
G04 APERTURE END LIST*
D10*
%TO.C,R12*%
X50753554Y-97400000D03*
X52578554Y-97400000D03*
%TD*%
D11*
%TO.C,J10*%
X142653553Y-84999999D03*
X142653553Y-75599999D03*
D12*
X142653553Y-80299999D03*
%TD*%
D13*
%TO.C,C11*%
X83500000Y-69875000D03*
X83500000Y-71600000D03*
%TD*%
%TO.C,C42*%
X55153554Y-60850000D03*
X55153554Y-62575000D03*
%TD*%
D14*
%TO.C,R3*%
X76553554Y-81950000D03*
X76553554Y-83600000D03*
%TD*%
D15*
%TO.C,R2*%
X85353554Y-46200000D03*
X83528554Y-46200000D03*
%TD*%
D16*
%TO.C,D5*%
X85353553Y-41349999D03*
X85353553Y-39449999D03*
X83153553Y-40399999D03*
%TD*%
D17*
%TO.C,C81*%
X122016054Y-70350000D03*
X120291054Y-70350000D03*
%TD*%
D18*
%TO.C,U4*%
X60403554Y-58650000D03*
X59903554Y-58650000D03*
X59403554Y-58650000D03*
X58903554Y-58650000D03*
X58403554Y-58650000D03*
X57903554Y-58650000D03*
D19*
X57203554Y-59350000D03*
X57203554Y-59850000D03*
X57203554Y-60350000D03*
X57203554Y-60850000D03*
X57203554Y-61350000D03*
X57203554Y-61850000D03*
D18*
X57903554Y-62550000D03*
X58403554Y-62550000D03*
X58903554Y-62550000D03*
X59403554Y-62550000D03*
X59903554Y-62550000D03*
X60403554Y-62550000D03*
D19*
X61103554Y-61850000D03*
X61103554Y-61350000D03*
X61103554Y-60850000D03*
X61103554Y-60350000D03*
X61103554Y-59850000D03*
X61103554Y-59350000D03*
%TD*%
D17*
%TO.C,C73*%
X135762500Y-58400000D03*
X134037500Y-58400000D03*
%TD*%
D10*
%TO.C,R6*%
X46128554Y-50650000D03*
X47953554Y-50650000D03*
%TD*%
D20*
%TO.C,C5*%
X46153554Y-86462500D03*
X46153554Y-84737500D03*
%TD*%
D21*
%TO.C,C41*%
X58291054Y-64100000D03*
X60016054Y-64100000D03*
%TD*%
D13*
%TO.C,C84*%
X127403554Y-90987500D03*
X127403554Y-92712500D03*
%TD*%
D22*
%TO.C,J4*%
X94403554Y-93650000D03*
X93153554Y-93650000D03*
X91903554Y-93650000D03*
X90653554Y-93650000D03*
D23*
X96253554Y-97000000D03*
X88803554Y-97000000D03*
%TD*%
D24*
%TO.C,FB4*%
X106553554Y-41800000D03*
X106553554Y-40050000D03*
%TD*%
D25*
%TO.C,R13*%
X79520280Y-68033274D03*
X78353554Y-69200000D03*
%TD*%
D20*
%TO.C,C82*%
X129300000Y-90325000D03*
X129300000Y-88600000D03*
%TD*%
D10*
%TO.C,R8*%
X78887500Y-91300000D03*
X80712500Y-91300000D03*
%TD*%
D26*
%TO.C,C3*%
X79763434Y-66209880D03*
X78543674Y-64990120D03*
%TD*%
D27*
%TO.C,J9*%
X118028553Y-96179999D03*
X118678553Y-96179999D03*
X119328553Y-96179999D03*
X119978553Y-96179999D03*
X120628553Y-96179999D03*
D28*
X118203553Y-98829999D03*
X120453553Y-98829999D03*
D29*
X117008553Y-96599999D03*
X121648553Y-96599999D03*
%TD*%
D13*
%TO.C,C44*%
X53653554Y-60850000D03*
X53653554Y-62575000D03*
%TD*%
D10*
%TO.C,R102*%
X123828554Y-89600000D03*
X125653554Y-89600000D03*
%TD*%
%TO.C,R33*%
X97491054Y-43850000D03*
X99316054Y-43850000D03*
%TD*%
D30*
%TO.C,C2*%
X96588434Y-64740120D03*
X95368674Y-65959880D03*
%TD*%
D21*
%TO.C,C13*%
X83416054Y-91300000D03*
X85141054Y-91300000D03*
%TD*%
D17*
%TO.C,C7*%
X86625000Y-73000000D03*
X84900000Y-73000000D03*
%TD*%
D31*
%TO.C,L1*%
X135903553Y-44599999D03*
X140703553Y-44599999D03*
%TD*%
D10*
%TO.C,R5*%
X46128554Y-45600000D03*
X47953554Y-45600000D03*
%TD*%
D32*
%TO.C,R42*%
X65653554Y-64262500D03*
X65653554Y-62437500D03*
%TD*%
D33*
%TO.C,Y1*%
X80897792Y-55269238D03*
X82099873Y-54067157D03*
X81180634Y-53147918D03*
X79978553Y-54349999D03*
%TD*%
D34*
%TO.C,R64*%
X126153554Y-52687500D03*
X126153554Y-54512500D03*
%TD*%
D24*
%TO.C,FB3*%
X73753554Y-41800000D03*
X73753554Y-40050000D03*
%TD*%
D35*
%TO.C,U8*%
X121153554Y-86100000D03*
X122253554Y-86100000D03*
X123353554Y-86100000D03*
X124453554Y-86100000D03*
X125553554Y-86100000D03*
X126653554Y-86100000D03*
X127753554Y-86100000D03*
X130753554Y-86100000D03*
X131853554Y-86100000D03*
X132953554Y-86100000D03*
X134053554Y-86100000D03*
X135153554Y-86100000D03*
X135153554Y-74100000D03*
X134053554Y-74100000D03*
X132953554Y-74100000D03*
X131853554Y-74100000D03*
X130753554Y-74100000D03*
X127753554Y-74100000D03*
X126653554Y-74100000D03*
X125553554Y-74100000D03*
X124453554Y-74100000D03*
X123353554Y-74100000D03*
X122253554Y-74100000D03*
X121153554Y-74100000D03*
%TD*%
D36*
%TO.C,U1*%
X86292373Y-56435519D03*
X85938820Y-56789072D03*
X85585267Y-57142625D03*
X85231713Y-57496179D03*
X84878160Y-57849732D03*
X84524606Y-58203286D03*
X84171053Y-58556839D03*
X83817500Y-58910392D03*
X83463946Y-59263946D03*
X83110393Y-59617499D03*
X82756840Y-59971052D03*
X82403286Y-60324606D03*
X82049733Y-60678159D03*
X81696179Y-61031713D03*
X81342626Y-61385266D03*
X80989073Y-61738819D03*
D37*
X80989073Y-64461181D03*
X81342626Y-64814734D03*
X81696179Y-65168287D03*
X82049733Y-65521841D03*
X82403286Y-65875394D03*
X82756840Y-66228948D03*
X83110393Y-66582501D03*
X83463946Y-66936054D03*
X83817500Y-67289608D03*
X84171053Y-67643161D03*
X84524606Y-67996714D03*
X84878160Y-68350268D03*
X85231713Y-68703821D03*
X85585267Y-69057375D03*
X85938820Y-69410928D03*
X86292373Y-69764481D03*
D36*
X89014735Y-69764481D03*
X89368288Y-69410928D03*
X89721841Y-69057375D03*
X90075395Y-68703821D03*
X90428948Y-68350268D03*
X90782502Y-67996714D03*
X91136055Y-67643161D03*
X91489608Y-67289608D03*
X91843162Y-66936054D03*
X92196715Y-66582501D03*
X92550268Y-66228948D03*
X92903822Y-65875394D03*
X93257375Y-65521841D03*
X93610929Y-65168287D03*
X93964482Y-64814734D03*
X94318035Y-64461181D03*
D37*
X94318035Y-61738819D03*
X93964482Y-61385266D03*
X93610929Y-61031713D03*
X93257375Y-60678159D03*
X92903822Y-60324606D03*
X92550268Y-59971052D03*
X92196715Y-59617499D03*
X91843162Y-59263946D03*
X91489608Y-58910392D03*
X91136055Y-58556839D03*
X90782502Y-58203286D03*
X90428948Y-57849732D03*
X90075395Y-57496179D03*
X89721841Y-57142625D03*
X89368288Y-56789072D03*
X89014735Y-56435519D03*
%TD*%
D17*
%TO.C,C71*%
X126516054Y-61600000D03*
X124791054Y-61600000D03*
%TD*%
D38*
%TO.C,U2*%
X69541054Y-42255000D03*
X69541054Y-40985000D03*
X69541054Y-39715000D03*
X69541054Y-38445000D03*
X64591054Y-38445000D03*
X64591054Y-39715000D03*
X64591054Y-40985000D03*
X64591054Y-42255000D03*
%TD*%
D21*
%TO.C,C33*%
X90403554Y-40350000D03*
X92128554Y-40350000D03*
%TD*%
D39*
%TO.C,FB5*%
X56528554Y-64100000D03*
X54778554Y-64100000D03*
%TD*%
D40*
%TO.C,U9*%
X118003554Y-92875000D03*
X118953554Y-92875000D03*
X119903554Y-92875000D03*
X119903554Y-90600000D03*
X118953554Y-90600000D03*
X118003554Y-90600000D03*
%TD*%
D41*
%TO.C,SW1*%
X36178553Y-70599999D03*
X44128553Y-70599999D03*
X36178553Y-75099999D03*
X44128553Y-75099999D03*
%TD*%
D42*
%TO.C,C8*%
X79983794Y-59869760D03*
X81203554Y-58650000D03*
%TD*%
D39*
%TO.C,D1*%
X115528554Y-53100000D03*
X113778554Y-53100000D03*
%TD*%
D17*
%TO.C,C60*%
X140516054Y-49100000D03*
X138791054Y-49100000D03*
%TD*%
D13*
%TO.C,C31*%
X104903554Y-40112500D03*
X104903554Y-41837500D03*
%TD*%
D43*
%TO.C,R18*%
X51200000Y-48800000D03*
X52850000Y-48800000D03*
%TD*%
D39*
%TO.C,D3*%
X118253554Y-84500000D03*
X116503554Y-84500000D03*
%TD*%
D25*
%TO.C,R4*%
X80720280Y-69233274D03*
X79553554Y-70400000D03*
%TD*%
D44*
%TO.C,FB2*%
X77553554Y-62200000D03*
X78790990Y-60962564D03*
%TD*%
D26*
%TO.C,C9*%
X79513434Y-56709880D03*
X78293674Y-55490120D03*
%TD*%
D43*
%TO.C,R17*%
X51200000Y-47200000D03*
X52850000Y-47200000D03*
%TD*%
D10*
%TO.C,R32*%
X87053554Y-41350000D03*
X88878554Y-41350000D03*
%TD*%
D45*
%TO.C,R19*%
X95153554Y-57200000D03*
X96320280Y-56033274D03*
%TD*%
D46*
%TO.C,FB1*%
X84825000Y-74400000D03*
X86575000Y-74400000D03*
%TD*%
D32*
%TO.C,R61*%
X130653554Y-54512500D03*
X130653554Y-52687500D03*
%TD*%
D21*
%TO.C,C14*%
X106291054Y-91350000D03*
X108016054Y-91350000D03*
%TD*%
D10*
%TO.C,R7*%
X78866054Y-89800000D03*
X80691054Y-89800000D03*
%TD*%
D34*
%TO.C,R80*%
X130900000Y-88525000D03*
X130900000Y-90350000D03*
%TD*%
D13*
%TO.C,C21*%
X72066054Y-39987500D03*
X72066054Y-41712500D03*
%TD*%
D17*
%TO.C,C72*%
X126525000Y-63100000D03*
X124800000Y-63100000D03*
%TD*%
D21*
%TO.C,C30*%
X46228554Y-52200000D03*
X47953554Y-52200000D03*
%TD*%
D10*
%TO.C,R22*%
X54028554Y-41350000D03*
X55853554Y-41350000D03*
%TD*%
D38*
%TO.C,U3*%
X102628554Y-42255000D03*
X102628554Y-40985000D03*
X102628554Y-39715000D03*
X102628554Y-38445000D03*
X97678554Y-38445000D03*
X97678554Y-39715000D03*
X97678554Y-40985000D03*
X97678554Y-42255000D03*
%TD*%
D21*
%TO.C,C12*%
X93291054Y-91350000D03*
X95016054Y-91350000D03*
%TD*%
D13*
%TO.C,C43*%
X62653554Y-62487500D03*
X62653554Y-64212500D03*
%TD*%
D47*
%TO.C,D7*%
X124653553Y-45099999D03*
X124653553Y-38099999D03*
%TD*%
D48*
%TO.C,PS1*%
X123753553Y-91199999D03*
X123753553Y-91849999D03*
X123753553Y-92499999D03*
X125653553Y-92499999D03*
X125653553Y-91199999D03*
%TD*%
D21*
%TO.C,C23*%
X57441054Y-40350000D03*
X59166054Y-40350000D03*
%TD*%
D15*
%TO.C,R1*%
X115566054Y-54850000D03*
X113741054Y-54850000D03*
%TD*%
%TO.C,R82*%
X118312500Y-86100000D03*
X116487500Y-86100000D03*
%TD*%
D46*
%TO.C,D2*%
X86953554Y-46200000D03*
X88703554Y-46200000D03*
%TD*%
D13*
%TO.C,C83*%
X121903554Y-90987500D03*
X121903554Y-92712500D03*
%TD*%
D39*
%TO.C,FB6*%
X71828554Y-89200000D03*
X70078554Y-89200000D03*
%TD*%
D41*
%TO.C,SW2*%
X36178553Y-83349999D03*
X44128553Y-83349999D03*
X36178553Y-87849999D03*
X44128553Y-87849999D03*
%TD*%
D13*
%TO.C,C22*%
X75403554Y-39987500D03*
X75403554Y-41712500D03*
%TD*%
D20*
%TO.C,C4*%
X46153554Y-73712500D03*
X46153554Y-71987500D03*
%TD*%
D49*
%TO.C,C10*%
X82543674Y-51490120D03*
X83763434Y-52709880D03*
%TD*%
D45*
%TO.C,R20*%
X96153554Y-58200000D03*
X97320280Y-57033274D03*
%TD*%
D32*
%TO.C,R41*%
X64153554Y-64262500D03*
X64153554Y-62437500D03*
%TD*%
D34*
%TO.C,R62*%
X129153554Y-52687500D03*
X129153554Y-54512500D03*
%TD*%
D50*
%TO.C,U6*%
X134453554Y-52600000D03*
X133803554Y-52600000D03*
X133153554Y-52600000D03*
X132503554Y-52600000D03*
X132503554Y-54875000D03*
X133153554Y-54875000D03*
X133803554Y-54875000D03*
X134453554Y-54875000D03*
%TD*%
D46*
%TO.C,FB10*%
X106278554Y-89850000D03*
X108028554Y-89850000D03*
%TD*%
D21*
%TO.C,C85*%
X125041054Y-71850000D03*
X126766054Y-71850000D03*
%TD*%
D10*
%TO.C,R23*%
X64241054Y-43850000D03*
X66066054Y-43850000D03*
%TD*%
D48*
%TO.C,PS2*%
X46253553Y-53699999D03*
X46253553Y-54349999D03*
X46253553Y-54999999D03*
X48153553Y-54999999D03*
X48153553Y-53699999D03*
%TD*%
D22*
%TO.C,J5*%
X84403554Y-93600000D03*
X83153554Y-93600000D03*
X81903554Y-93600000D03*
X80653554Y-93600000D03*
D23*
X86253554Y-96950000D03*
X78803554Y-96950000D03*
%TD*%
D51*
%TO.C,F1*%
X125658553Y-34099999D03*
X122648553Y-34099999D03*
%TD*%
D10*
%TO.C,R31*%
X87053554Y-39350000D03*
X88878554Y-39350000D03*
%TD*%
D20*
%TO.C,C18*%
X70153554Y-92662500D03*
X70153554Y-90937500D03*
%TD*%
D46*
%TO.C,D6*%
X50753554Y-99000000D03*
X52503554Y-99000000D03*
%TD*%
D52*
%TO.C,Q1*%
X137678554Y-51695000D03*
X137678554Y-52965000D03*
X137678554Y-54235000D03*
X137678554Y-55505000D03*
X142628554Y-55505000D03*
X142628554Y-54235000D03*
X142628554Y-52965000D03*
X142628554Y-51695000D03*
%TD*%
D46*
%TO.C,FB9*%
X83403554Y-89800000D03*
X85153554Y-89800000D03*
%TD*%
D22*
%TO.C,J6*%
X107278554Y-93650000D03*
X106028554Y-93650000D03*
X104778554Y-93650000D03*
X103528554Y-93650000D03*
X102278554Y-93650000D03*
X101028554Y-93650000D03*
D23*
X109128554Y-97000000D03*
X99178554Y-97000000D03*
%TD*%
D17*
%TO.C,C1*%
X86625000Y-71600000D03*
X84900000Y-71600000D03*
%TD*%
D53*
%TO.C,R25*%
X90553554Y-53000000D03*
X89386828Y-51833274D03*
%TD*%
D46*
%TO.C,FB7*%
X120278554Y-68850000D03*
X122028554Y-68850000D03*
%TD*%
D54*
%TO.C,U5*%
X45903554Y-47150000D03*
X45903554Y-48100000D03*
X45903554Y-49050000D03*
X48178554Y-49050000D03*
X48178554Y-48100000D03*
X48178554Y-47150000D03*
%TD*%
D34*
%TO.C,R63*%
X127653554Y-52687500D03*
X127653554Y-54512500D03*
%TD*%
D55*
%TO.C,C61*%
X145403553Y-46499999D03*
X145403553Y-42199999D03*
%TD*%
D13*
%TO.C,C32*%
X108153554Y-40112500D03*
X108153554Y-41837500D03*
%TD*%
D56*
%TO.C,J3*%
X41553553Y-44899999D03*
X41553553Y-45699999D03*
D57*
X41553553Y-46849999D03*
X41553553Y-47849999D03*
X41553553Y-48349999D03*
X41553553Y-49349999D03*
D56*
X41553553Y-50499999D03*
X41553553Y-51299999D03*
D57*
X41553553Y-49849999D03*
X41553553Y-48849999D03*
X41553553Y-47349999D03*
X41553553Y-46349999D03*
%TD*%
D53*
%TO.C,R24*%
X91683363Y-51883363D03*
X90516637Y-50716637D03*
%TD*%
D20*
%TO.C,C19*%
X71953554Y-92662500D03*
X71953554Y-90937500D03*
%TD*%
D49*
%TO.C,C6*%
X88953554Y-53800000D03*
X90173314Y-55019760D03*
%TD*%
D55*
%TO.C,C62*%
X131153553Y-46499999D03*
X131153553Y-42199999D03*
%TD*%
D16*
%TO.C,D4*%
X52353553Y-41349999D03*
X52353553Y-39449999D03*
X50153553Y-40399999D03*
%TD*%
D58*
%TO.C,R9*%
X93398789Y-55554765D03*
X92108319Y-56845235D03*
%TD*%
D46*
%TO.C,FB8*%
X93278554Y-89850000D03*
X95028554Y-89850000D03*
%TD*%
D17*
%TO.C,C34*%
X47953554Y-56500000D03*
X46228554Y-56500000D03*
%TD*%
D10*
%TO.C,R21*%
X54028554Y-39350000D03*
X55853554Y-39350000D03*
%TD*%
%TO.C,R101*%
X123828554Y-88100000D03*
X125653554Y-88100000D03*
%TD*%
D46*
%TO.C,L2*%
X132403554Y-90350000D03*
X134153554Y-90350000D03*
%TD*%
D17*
%TO.C,C80*%
X122016054Y-71850000D03*
X120291054Y-71850000D03*
%TD*%
M02*
